<svg width="100" height="100" viewBox="0 0 100 100" fill="none" xmlns="http://www.w3.org/2000/svg">
<rect width="100" height="100" fill="#EEEEEE"/>
<path d="M70.6237 22.499V65.3116C70.627 67.1968 69.9999 69.029 68.8421 70.5168C67.6843 72.0047 66.0623 73.0627 64.2341 73.5228C62.4058 73.9828 60.4763 73.8184 58.7522 73.0557C57.0281 72.293 55.6085 70.9758 54.7191 69.3135C53.8298 67.6513 53.5217 65.7394 53.8438 63.8819C54.166 62.0243 55.0999 60.3279 56.4971 59.0622C57.8942 57.7964 59.6745 57.0342 61.5547 56.8966C63.4349 56.759 65.3071 57.2539 66.8737 58.3027V34.2746L40.6237 40.8371V72.8116C40.627 74.6968 39.9999 76.529 38.8421 78.0168C37.6843 79.5047 36.0623 80.5627 34.2341 81.0228C32.4058 81.4828 30.4763 81.3184 28.7522 80.5557C27.0281 79.793 25.6085 78.4758 24.7191 76.8135C23.8298 75.1513 23.5217 73.2394 23.8438 71.3819C24.166 69.5243 25.0999 67.8279 26.4971 66.5622C27.8942 65.2964 29.6745 64.5342 31.5547 64.3966C33.4349 64.259 35.3071 64.7539 36.8737 65.8027V29.999C36.8738 29.5809 37.0137 29.1748 37.2712 28.8453C37.5286 28.5159 37.8889 28.282 38.2946 28.1808L68.2946 20.6808C68.5707 20.6099 68.8595 20.6038 69.1383 20.6629C69.4172 20.7219 69.6786 20.8446 69.9023 21.0214C70.1267 21.1969 70.3083 21.4211 70.4333 21.6771C70.5582 21.9331 70.6234 22.2142 70.6237 22.499Z" fill="#E3E3E3"/>
</svg>
